# xmcd CD database file
#
# Track frame offsets:
#	150
#	36320
#	77720
#	119607
#
# Disc length: 2015 seconds
#
# Revision: 0
# Processed by: cddbd v1.4PL0 Copyright (c) Steve Scherf et al.
# Submitted via: CDex 1.50beta10
#
DISCID=2f07dd04
DTITLE=Fuse one - Silk
DYEAR=1981
DGENRE=Jazz
TTITLE0=Silk
TTITLE1=In celebration of the human spirit
TTITLE2=Sunwalk
TTITLE3=Hot fire
EXTD=YEAR: 1981
EXTT0=
EXTT1=
EXTT2=
EXTT3=
PLAYORDER=
